<svg width="201" height="80" viewBox="0 0 201 80" fill="none" xmlns="http://www.w3.org/2000/svg">
<g id="Logo" clip-path="url(#clip0_2_7257)">
<g id="_.">
<path id="Vector" d="M32.64 2.50903C29.311 -0.83545 23.9124 -0.83545 20.5834 2.50903L2.49744 20.6755C-0.831585 24.02 -0.831585 29.4417 2.49744 32.7862L20.5834 50.9526C23.9124 54.2971 29.311 54.2971 32.64 50.9526L50.725 32.7862C54.054 29.4417 54.054 24.019 50.725 20.6755L32.64 2.50903ZM39.3967 30.0189L29.7654 39.6938C27.9927 41.4754 25.1171 41.4754 23.3445 39.6938L13.7131 30.0189C11.9405 28.2383 11.9405 25.3502 13.7131 23.5686L23.3445 13.8937C25.1171 12.1131 27.9927 12.1131 29.7654 13.8937L39.3967 23.5686C41.1703 25.3502 41.1703 28.2373 39.3967 30.0189ZM155.003 43.5017C153.912 42.4691 152.502 41.9518 150.773 41.9518C149.044 41.9518 147.634 42.4691 146.544 43.5017C145.453 44.5353 144.908 45.9204 144.908 47.6571C144.908 49.3937 145.422 50.7998 146.452 51.8744C147.48 52.9489 148.922 53.4872 150.773 53.4872C152.624 53.4872 154.065 52.9489 155.095 51.8744C156.123 50.7998 156.638 49.3937 156.638 47.6571C156.638 45.9204 156.092 44.5353 155.002 43.5017H155.003Z" fill="#34BEEE"/>
</g>
<g id="Logo-2">
<path id="Vector_2" d="M104.048 20.9767C102.689 19.5886 101.133 18.6079 99.3805 18.0367C97.6268 17.4664 95.7875 17.1808 93.8604 17.1808C91.5876 17.1808 89.7352 17.5413 88.3034 18.2594C86.8705 18.9794 85.7844 19.7104 85.0431 20.4544V6.6131C85.0431 5.37377 84.8448 4.36913 84.4502 3.59917C84.0547 2.83021 83.5485 2.22203 82.9317 1.77563C82.3139 1.32923 81.5985 1.03164 80.7834 0.882837C79.9684 0.734038 79.1652 0.659139 78.3751 0.659139C77.5849 0.659139 76.8436 0.696089 76.1521 0.770988C75.4596 0.844888 75.065 0.907804 74.9663 0.956738V53.4239H81.4859C82.4733 53.4239 83.1649 53.1393 83.5604 52.5681C83.955 51.9978 84.1533 51.3397 84.1533 50.5957C84.2519 50.7445 84.4981 51.0182 84.8946 51.4146C85.339 51.8121 85.9439 52.2335 86.7101 52.6799C87.4754 53.1263 88.4389 53.5358 89.5997 53.9083C90.7595 54.2807 92.1306 54.4665 93.7119 54.4665C95.4905 54.4665 97.2552 54.1689 99.0089 53.5737C100.762 52.9785 102.343 51.9489 103.751 50.4849C105.159 49.0219 106.307 47.0245 107.196 44.494C108.085 41.9634 108.53 38.7637 108.53 34.8939C108.53 31.5205 108.122 28.7053 107.307 26.4473C106.492 24.1904 105.405 22.3668 104.047 20.9777L104.048 20.9767ZM96.3793 43.6381C95.2922 45.6474 93.4897 46.6521 90.9708 46.6521C89.4393 46.6521 88.1669 46.3674 87.1555 45.7962C86.1421 45.226 85.4387 44.7426 85.0441 44.3452V28.196C85.0441 27.2043 85.4516 26.3105 86.2667 25.5166C87.0818 24.7237 88.5266 24.3262 90.6011 24.3262C91.9831 24.3262 93.1569 24.5998 94.1205 25.1451C95.084 25.6913 95.8492 26.4353 96.4172 27.3781C96.9842 28.3208 97.3917 29.4503 97.6398 30.7645C97.8859 32.0797 98.0105 33.5068 98.0105 35.0437C98.0105 38.7647 97.4664 41.6298 96.3803 43.6391L96.3793 43.6381ZM66.9781 18.2604C66.3354 17.8399 65.619 17.5533 64.8298 17.4045C64.0387 17.2557 63.2485 17.1808 62.4593 17.1808C61.6702 17.1808 60.9278 17.2178 60.2363 17.2927C59.5438 17.3676 59.1492 17.4295 59.0506 17.4784V47.2472C59.0506 49.7289 59.6544 51.3777 60.8661 52.1966C62.0757 53.0155 63.6441 53.4249 65.5711 53.4249C66.3603 53.4249 67.1016 53.3989 67.7941 53.351C68.4857 53.3011 68.9301 53.2262 69.1274 53.1273V23.0609C69.1274 21.8216 68.9291 20.8169 68.5345 20.047C68.1389 19.278 67.6198 18.6828 66.9791 18.2604H66.9781ZM63.7915 0.138842C62.2601 0.138842 60.9757 0.648154 59.9384 1.66478C58.9011 2.68241 58.383 3.98465 58.383 5.57151C58.383 7.15837 58.9021 8.44962 59.9384 9.44128C60.9757 10.4339 62.2591 10.9293 63.7915 10.9293C65.324 10.9293 66.5446 10.4339 67.6068 9.44128C68.668 8.44962 69.2001 7.15936 69.2001 5.57151C69.2001 3.98365 68.669 2.68141 67.6068 1.66478C66.5436 0.648154 65.2732 0.138842 63.7915 0.138842ZM117.506 0.231716C115.975 0.231716 114.691 0.741029 113.653 1.75766C112.616 2.77528 112.098 4.07752 112.098 5.66438C112.098 7.25124 112.616 8.5425 113.653 9.53416C114.69 10.5268 115.974 11.0231 117.506 11.0231C119.039 11.0231 120.259 10.5278 121.322 9.53416C122.383 8.5425 122.915 7.25224 122.915 5.66438C122.915 4.07653 122.384 2.77428 121.322 1.75766C120.258 0.741029 118.988 0.231716 117.506 0.231716ZM120.692 18.3533C120.049 17.9328 119.333 17.6462 118.544 17.4974C117.753 17.3486 116.962 17.2737 116.173 17.2737C115.384 17.2737 114.642 17.3107 113.95 17.3856C113.258 17.4605 112.863 17.5224 112.764 17.5713V47.3401C112.764 49.8218 113.368 51.4705 114.58 52.2894C115.79 53.1083 117.358 53.5178 119.285 53.5178C120.074 53.5178 120.815 53.4918 121.508 53.4429C122.199 53.3929 122.644 53.318 122.841 53.2192V23.1538C122.841 21.9144 122.643 20.9098 122.248 20.1398C121.853 19.3709 121.334 18.7757 120.693 18.3533H120.692ZM153.305 2.44573C152.119 1.6528 150.624 1.0576 148.822 0.660138C147.018 0.263673 145.229 0.0649414 143.45 0.0649414C138.658 0.0649414 135.015 1.31825 132.521 3.82287C130.026 6.32849 128.78 9.98854 128.78 14.8V53.4249H138.782V25.6654H150.636V17.9997H138.782V14.5015C138.782 12.1197 139.338 10.4339 140.449 9.44028C141.56 8.44862 143.053 7.95229 144.932 7.95229C146.512 7.95229 147.932 8.22592 149.191 8.77119C150.451 9.31745 151.5 10.0115 152.34 10.8554C153.032 10.0125 153.673 9.09475 154.266 8.10209C154.859 7.11043 155.155 6.26757 155.155 5.57151C155.155 4.28225 154.537 3.23966 153.303 2.44573H153.305ZM184.793 27.0984C183.702 25.92 182.447 25.0622 181.027 24.5249C179.607 23.9876 178.094 23.719 176.489 23.719C174.39 23.719 172.64 24.0605 171.241 24.7426C169.841 25.4247 168.75 26.2416 167.969 27.1923C167.722 26.1178 167.237 25.3528 166.518 24.8974C165.798 24.443 164.944 24.2153 163.956 24.2153H163.555C163.369 24.2153 163.112 24.2363 162.782 24.2773V66.9456H168.031V51.2548C168.483 51.875 169.348 52.5681 170.624 53.332C171.9 54.097 173.649 54.4795 175.872 54.4795C177.271 54.4795 178.712 54.2318 180.194 53.7355C181.676 53.2392 183.024 52.3923 184.238 51.1929C185.452 49.9945 186.439 48.3707 187.202 46.3245C187.963 44.2783 188.344 41.7037 188.344 38.6029C188.344 35.8736 188.025 33.5697 187.387 31.6883C186.748 29.8078 185.884 28.2769 184.794 27.0994L184.793 27.0984ZM180.811 47.1304C179.534 49.0129 177.6 49.9526 175.007 49.9526C174.143 49.9526 173.329 49.8288 172.567 49.5801C171.805 49.3324 171.126 49.0428 170.53 48.7123C169.933 48.3817 169.428 48.0202 169.017 47.6267C168.606 47.2343 168.276 46.8728 168.03 46.5412V32.4013C168.03 31.2439 168.678 30.2522 169.975 29.4243C171.271 28.5974 172.907 28.184 174.883 28.184C176.365 28.184 177.609 28.4626 178.619 29.0209C179.627 29.5791 180.429 30.3341 181.027 31.2848C181.623 32.2365 182.055 33.373 182.323 34.6962C182.59 36.0194 182.725 37.4245 182.725 38.9135C182.725 42.5106 182.086 45.2499 180.811 47.1304ZM199.302 50.5418C198.911 50.397 198.623 50.1803 198.437 49.8907C198.252 49.6021 198.138 49.2396 198.097 48.8051C198.056 48.3707 198.036 47.8434 198.036 47.2233V13.2372C198.036 11.6663 197.655 10.5708 196.894 9.9506C196.132 9.33043 195.134 9.01985 193.9 9.01985H193.498C193.313 9.01985 193.076 9.04082 192.788 9.08177V47.0375C192.788 47.7815 192.818 48.5365 192.88 49.3015C192.942 50.0674 193.127 50.7585 193.436 51.3787C193.745 51.9988 194.217 52.4952 194.856 52.8677C195.494 53.2402 196.41 53.4259 197.603 53.4259C198.221 53.4259 198.848 53.384 199.486 53.3021C200.124 53.2182 200.628 53.1163 200.999 52.9915V50.7585C200.258 50.7585 199.692 50.6866 199.301 50.5418H199.302Z" fill="#11558A"/>
</g>
<g id="Marketing">
<path id="Vector_3" d="M22.6366 67.5788C21.967 67.5788 21.4708 67.9383 21.1479 68.6573L18.4038 75.0207L15.6776 68.5854C15.5222 68.2259 15.3279 67.9682 15.0947 67.8125C14.8616 67.6567 14.5776 67.5788 14.2428 67.5788C13.7525 67.5788 13.3341 67.6327 12.9873 67.7406L12.1085 79.6944H14.458L14.9781 71.9469L17.3456 77.1778H19.4082L21.8474 71.7132L22.4034 79.6944H24.735L23.8741 67.7406C23.5991 67.6327 23.1866 67.5788 22.6366 67.5788ZM38.1508 67.5788C37.5769 67.5788 37.0986 67.6627 36.7159 67.8304L32.5549 79.6944H34.9941L35.9806 76.7464H40.1237L41.146 79.6944H43.6929L39.8367 68.6933C39.5976 67.9503 39.0356 67.5788 38.1508 67.5788ZM36.4469 74.9488L38.079 69.8257L39.6574 74.9488H36.4469ZM58.7457 73.2951C59.1463 72.6839 59.3465 71.9529 59.3465 71.102C59.3465 69.8916 58.937 68.9959 58.118 68.4146C57.2989 67.8334 56.0345 67.5428 54.3246 67.5428C53.2365 67.5428 52.1783 67.6027 51.15 67.7226V79.6944H53.6251V75.1645H54.6116L56.6562 78.6518C56.9073 79.0832 57.1823 79.3948 57.4813 79.5866C57.7802 79.7783 58.1508 79.8742 58.5933 79.8742C59.0835 79.8742 59.5618 79.7723 60.0281 79.5686L57.0687 74.6073C57.7862 74.3436 58.3451 73.9062 58.7457 73.2951ZM56.163 72.9355C55.7624 73.307 55.1915 73.4928 54.4502 73.4928H53.6072V69.3404C53.7148 69.3284 53.8463 69.3164 54.0018 69.3044C54.1572 69.2925 54.3425 69.2865 54.5578 69.2865C55.3111 69.2865 55.8671 69.4542 56.2258 69.7898C56.5845 70.1253 56.7638 70.6406 56.7638 71.3357C56.7638 72.0308 56.5636 72.564 56.163 72.9355ZM76.2776 68.118C76.1102 67.9503 75.898 67.8184 75.6409 67.7226C75.3839 67.6267 75.1118 67.5788 74.8249 67.5788C74.4901 67.5788 74.1882 67.6567 73.9191 67.8125C73.6501 67.9682 73.3841 68.2139 73.121 68.5495L70.6638 71.7851C70.4247 72.0967 70.2483 72.3753 70.1347 72.621C70.0211 72.8666 69.9524 73.1153 69.9285 73.367V68.9809C69.9285 68.0461 69.3964 67.5788 68.3322 67.5788C68.1409 67.5788 67.8539 67.6087 67.4713 67.6686V79.6944H69.9285V73.5827C69.9763 74.1938 70.2693 74.847 70.8073 75.542L73.4438 78.9574C73.9221 79.5806 74.5618 79.8921 75.3629 79.8921C75.8412 79.8921 76.3135 79.7543 76.7798 79.4787L72.3139 73.4209L76.2776 68.118ZM91.2986 78.1215C91.0415 77.8998 90.6739 77.789 90.1956 77.789H86.3574V74.4635H90.1597V72.5401H86.3574V69.5741H89.8907C90.4407 69.5741 90.8323 69.4782 91.0655 69.2865C91.2986 69.0947 91.4152 68.7712 91.4152 68.3158C91.4152 68.0521 91.3973 67.8304 91.3614 67.6507H83.8823V79.6944H91.6484C91.6603 79.5866 91.6693 79.4877 91.6753 79.3978C91.6812 79.3079 91.6842 79.1971 91.6842 79.0653C91.6842 78.6578 91.5557 78.3432 91.2986 78.1215ZM100.598 67.6507C100.132 67.6507 99.7612 67.7675 99.4862 68.0012C99.2112 68.2349 99.0736 68.5495 99.0736 68.9449C99.0736 69.2086 99.0916 69.4482 99.1275 69.664H102.876V79.6944H105.351V69.664H107.611C108.077 69.664 108.439 69.5531 108.696 69.3314C108.953 69.1097 109.082 68.8071 109.082 68.4236C109.082 68.16 109.064 67.9023 109.028 67.6507H100.598ZM117.296 67.5788C117.105 67.5788 116.818 67.6087 116.435 67.6686V79.6944H118.892V68.9809C118.892 68.0461 118.36 67.5788 117.296 67.5788ZM135.823 67.5788C135.644 67.5788 135.375 67.6087 135.016 67.6686V75.9555L130.389 68.3877C130.198 68.0761 129.991 67.8634 129.77 67.7495C129.549 67.6357 129.265 67.5788 128.918 67.5788C128.5 67.5788 128.135 67.6147 127.824 67.6866V79.6944H130.174V71.7851L135.285 79.6944H137.366V68.9809C137.366 68.0461 136.852 67.5788 135.823 67.5788ZM151.938 73.1512V74.9848H153.983V77.5553C153.864 77.6512 153.726 77.7351 153.571 77.807C153.212 77.9628 152.77 78.0407 152.243 78.0407C151.143 78.0407 150.303 77.6632 149.723 76.9082C149.144 76.1532 148.854 75.0687 148.854 73.6546C148.854 72.2405 149.138 71.2608 149.706 70.5358C150.273 69.8108 151.102 69.4482 152.19 69.4482C152.716 69.4482 153.209 69.5411 153.669 69.7269C154.13 69.9126 154.599 70.2272 155.077 70.6706C155.34 70.4429 155.552 70.2062 155.714 69.9606C155.875 69.7149 155.956 69.4962 155.956 69.3044C155.956 69.0168 155.783 68.7292 155.436 68.4416C155.089 68.154 154.62 67.9113 154.028 67.7136C153.436 67.5159 152.811 67.417 152.154 67.417C150.946 67.417 149.909 67.6627 149.042 68.154C148.175 68.6453 147.508 69.3644 147.042 70.3111C146.576 71.2578 146.343 72.3843 146.343 73.6905C146.343 74.9968 146.561 76.1232 146.997 77.07C147.434 78.0167 148.07 78.7417 148.907 79.245C149.744 79.7483 150.767 80 151.974 80C152.608 80 153.203 79.9401 153.759 79.8202C154.315 79.7004 154.82 79.5266 155.274 79.2989C155.729 79.0713 156.07 78.8196 156.297 78.544V73.1512H151.938Z" fill="#11558A"/>
</g>
<g id="_360">
<path id="Vector_4" d="M178.192 73.4029C178.766 73.1393 179.211 72.7708 179.528 72.2974C179.845 71.824 180.004 71.2758 180.004 70.6526C180.004 69.7059 179.672 68.9659 179.008 68.4326C178.345 67.8993 177.403 67.6327 176.183 67.6327C175.466 67.6327 174.796 67.7256 174.175 67.9113C173.553 68.0971 173.045 68.3517 172.65 68.6753C172.542 68.7712 172.441 68.876 172.345 68.9899C172.249 69.1037 172.202 69.2445 172.202 69.4123C172.202 69.592 172.279 69.8137 172.435 70.0774C172.59 70.341 172.787 70.5747 173.027 70.7784C173.589 70.3231 174.082 70.0115 174.506 69.8437C174.931 69.6759 175.364 69.592 175.807 69.592C176.943 69.592 177.511 70.0534 177.511 70.9762C177.511 71.3117 177.439 71.5963 177.295 71.83C177.152 72.0637 176.94 72.2465 176.659 72.3783C176.378 72.5101 176.076 72.576 175.753 72.576H174.838V74.3916H175.753C176.387 74.3916 176.886 74.5444 177.25 74.8499C177.615 75.1555 177.797 75.5959 177.797 76.1712C177.797 76.7464 177.618 77.2377 177.259 77.5733C176.901 77.9088 176.41 78.0766 175.789 78.0766C175.251 78.0766 174.725 77.9627 174.21 77.7351C173.696 77.5074 173.236 77.1898 172.829 76.7823C172.339 77.5134 172.094 78.0466 172.094 78.3822C172.094 78.538 172.142 78.6878 172.237 78.8316C172.333 78.9754 172.465 79.0952 172.632 79.1911C173.541 79.7304 174.647 80 175.95 80C177.325 80 178.389 79.6674 179.143 79.0023C179.896 78.3372 180.273 77.4175 180.273 76.2431C180.273 75.548 180.105 74.9668 179.77 74.4994C179.436 74.0321 178.909 73.6665 178.192 73.4029ZM187.267 71.6413C186.813 71.6413 186.371 71.7132 185.94 71.857C185.51 72.0008 185.157 72.1865 184.882 72.4142C185.121 71.5874 185.57 70.8953 186.227 70.338C186.885 69.7808 187.638 69.5022 188.487 69.5022C188.81 69.5022 189.121 69.5261 189.42 69.5741C189.468 69.3344 189.491 69.0468 189.491 68.7112C189.491 68.3158 189.39 68.0371 189.187 67.8754C188.983 67.7136 188.619 67.6327 188.092 67.6327C187.016 67.6327 186.024 67.9203 185.115 68.4955C184.206 69.0708 183.492 69.8916 182.972 70.9582C182.452 72.0248 182.192 73.2891 182.192 74.7511C182.192 76.4408 182.556 77.738 183.286 78.6428C184.015 79.5476 185.079 80 186.478 80C187.291 80 188.012 79.8232 188.639 79.4697C189.267 79.1162 189.754 78.6039 190.101 77.9328C190.448 77.2617 190.621 76.4648 190.621 75.542C190.621 74.3436 190.325 73.3939 189.734 72.6929C189.142 71.9918 188.32 71.6413 187.267 71.6413ZM187.68 77.4295C187.393 77.8489 187.004 78.0586 186.514 78.0586C185.295 78.0586 184.685 77.0759 184.685 75.1106C184.685 74.6792 184.709 74.3376 184.756 74.086C184.924 73.9182 185.178 73.7684 185.519 73.6366C185.859 73.5048 186.179 73.4389 186.478 73.4389C187.04 73.4389 187.453 73.6186 187.716 73.9781C187.979 74.3376 188.11 74.9129 188.11 75.7038C188.11 76.4348 187.967 77.01 187.68 77.4295ZM199.625 69.1606C198.908 68.142 197.819 67.6327 196.361 67.6327C194.902 67.6327 193.784 68.169 193.007 69.2415C192.23 70.3141 191.841 71.839 191.841 73.8163C191.841 75.7937 192.209 77.4175 192.944 78.4361C193.679 79.4547 194.794 79.964 196.289 79.964C197.784 79.964 198.848 79.4487 199.589 78.4181C200.33 77.3875 200.701 75.8536 200.701 73.8163C200.701 71.7791 200.342 70.1793 199.625 69.1606ZM197.805 77.016C197.488 77.6991 196.988 78.0406 196.307 78.0406C195.625 78.0406 195.105 77.6931 194.782 76.9981C194.46 76.303 194.298 75.2424 194.298 73.8163C194.298 72.3903 194.46 71.2937 194.782 70.5987C195.105 69.9036 195.613 69.5561 196.307 69.5561C197 69.5561 197.488 69.9036 197.805 70.5987C198.121 71.2937 198.28 72.3663 198.28 73.8163C198.28 75.2664 198.121 76.3329 197.805 77.016Z" fill="#E40D82"/>
</g>
</g>
<defs>
<clipPath id="clip0_2_7257">
<rect width="201" height="80" fill="white"/>
</clipPath>
</defs>
</svg>
